<svg width="51" height="51" viewBox="0 0 51 51" fill="none" xmlns="http://www.w3.org/2000/svg">
<path d="M15.3 40.8C12.495 40.8 10.2255 43.095 10.2255 45.9C10.2255 48.705 12.495 51 15.3 51C18.105 51 20.4 48.705 20.4 45.9C20.4 43.095 18.105 40.8 15.3 40.8ZM0 0V5.1H5.1L14.28 24.4545L10.8375 30.702C10.4295 31.416 10.2 32.2575 10.2 33.15C10.2 35.955 12.495 38.25 15.3 38.25H45.9V33.15H16.371C16.014 33.15 15.7335 32.8695 15.7335 32.5125L15.81 32.2065L18.105 28.05H37.1025C39.015 28.05 40.698 27.0045 41.565 25.4235L50.694 8.874C50.898 8.517 51 8.0835 51 7.65C51 6.2475 49.8525 5.1 48.45 5.1H10.7355L8.3385 0H0ZM40.8 40.8C37.995 40.8 35.7255 43.095 35.7255 45.9C35.7255 48.705 37.995 51 40.8 51C43.605 51 45.9 48.705 45.9 45.9C45.9 43.095 43.605 40.8 40.8 40.8Z" fill="#FAF8F5"/>
</svg>
